<svg xmlns="http://www.w3.org/2000/svg" viewBox="0 0 320 240" role="img" aria-label="FRONT"><rect width="100%" height="100%" fill="#fff"/><g stroke="#262a2b" stroke-width="1" fill="none" vector-effect="non-scaling-stroke"><line x1="104.53" y1="20.00" x2="108.01" y2="20.00"/><line x1="108.05" y1="20.00" x2="136.48" y2="20.00"/><line x1="136.48" y1="20.00" x2="183.52" y2="20.00"/><line x1="183.52" y1="20.00" x2="211.95" y2="20.00"/><line x1="211.99" y1="20.00" x2="215.47" y2="20.00"/><line x1="208.00" y1="67.85" x2="208.00" y2="72.98"/><line x1="208.00" y1="72.98" x2="160.00" y2="72.98"/><line x1="160.00" y1="72.98" x2="160.00" y2="67.85"/><line x1="160.00" y1="67.85" x2="207.90" y2="67.85"/><line x1="208.00" y1="67.85" x2="207.90" y2="67.85"/><line x1="160.00" y1="72.98" x2="112.00" y2="72.98"/><line x1="112.00" y1="72.98" x2="112.00" y2="67.85"/><line x1="112.00" y1="67.85" x2="112.10" y2="67.85"/><line x1="160.00" y1="67.85" x2="112.10" y2="67.85"/><line x1="237.69" y1="67.85" x2="237.69" y2="72.98"/><line x1="237.69" y1="72.98" x2="208.00" y2="72.98"/><line x1="208.00" y1="67.85" x2="208.08" y2="67.85"/><line x1="208.08" y1="67.85" x2="237.69" y2="67.85"/><line x1="82.31" y1="67.85" x2="111.92" y2="67.85"/><line x1="112.00" y1="67.85" x2="111.92" y2="67.85"/><line x1="112.00" y1="72.98" x2="82.31" y2="72.98"/><line x1="82.31" y1="67.85" x2="82.31" y2="72.98"/><line x1="237.69" y1="67.85" x2="260.86" y2="67.85"/><line x1="260.86" y1="67.85" x2="260.86" y2="72.98"/><line x1="237.69" y1="72.98" x2="260.86" y2="72.98"/><line x1="82.31" y1="72.98" x2="59.14" y2="72.98"/><line x1="59.14" y1="72.98" x2="59.14" y2="67.85"/><line x1="82.31" y1="67.85" x2="59.14" y2="67.85"/><line x1="260.86" y1="67.85" x2="270.60" y2="67.85"/><line x1="270.61" y1="67.85" x2="270.61" y2="72.98"/><line x1="270.60" y1="72.98" x2="260.86" y2="72.98"/><line x1="49.40" y1="67.85" x2="59.14" y2="67.85"/><line x1="59.14" y1="72.98" x2="49.40" y2="72.98"/><line x1="49.39" y1="67.85" x2="49.39" y2="72.98"/><line x1="279.98" y1="67.85" x2="279.98" y2="72.98"/><line x1="270.61" y1="72.98" x2="279.98" y2="72.98"/><line x1="270.61" y1="67.85" x2="279.98" y2="67.85"/><line x1="49.39" y1="67.85" x2="40.02" y2="67.85"/><line x1="49.39" y1="72.98" x2="40.02" y2="72.98"/><line x1="40.02" y1="67.85" x2="40.02" y2="72.98"/><line x1="283.18" y1="67.85" x2="283.18" y2="72.98"/><line x1="279.98" y1="72.98" x2="283.18" y2="72.98"/><line x1="279.98" y1="67.85" x2="283.18" y2="67.85"/><line x1="36.82" y1="67.85" x2="40.02" y2="67.85"/><line x1="40.02" y1="72.98" x2="36.82" y2="72.98"/><line x1="36.82" y1="67.85" x2="36.82" y2="72.98"/><line x1="279.98" y1="72.98" x2="242.82" y2="130.58"/><line x1="283.18" y1="72.98" x2="245.69" y2="130.58"/><line x1="242.82" y1="130.58" x2="245.69" y2="130.58"/><line x1="74.31" y1="130.58" x2="77.18" y2="130.58"/><line x1="36.82" y1="72.98" x2="74.31" y2="130.58"/><line x1="40.02" y1="72.98" x2="77.18" y2="130.58"/><line x1="270.60" y1="72.98" x2="234.40" y2="130.57"/><line x1="234.40" y1="130.58" x2="242.82" y2="130.58"/><line x1="49.40" y1="72.98" x2="85.60" y2="130.57"/><line x1="85.60" y1="130.58" x2="77.18" y2="130.58"/><line x1="234.40" y1="130.57" x2="226.67" y2="130.57"/><line x1="260.86" y1="72.98" x2="226.67" y2="130.57"/><line x1="59.14" y1="72.98" x2="93.33" y2="130.57"/><line x1="85.60" y1="130.57" x2="93.33" y2="130.57"/><line x1="237.69" y1="72.98" x2="226.66" y2="130.58"/><line x1="82.31" y1="72.98" x2="93.34" y2="130.58"/><line x1="226.66" y1="130.58" x2="203.11" y2="130.58"/><line x1="208.00" y1="72.98" x2="203.11" y2="130.58"/><line x1="112.00" y1="72.98" x2="116.89" y2="130.58"/><line x1="93.34" y1="130.58" x2="116.89" y2="130.58"/><line x1="203.10" y1="130.59" x2="160.00" y2="130.59"/><line x1="160.00" y1="72.98" x2="160.00" y2="130.59"/><line x1="160.00" y1="130.59" x2="116.90" y2="130.59"/><line x1="234.40" y1="130.58" x2="198.23" y2="175.10"/><line x1="226.66" y1="130.58" x2="198.21" y2="175.12"/><line x1="85.60" y1="130.58" x2="121.77" y2="175.10"/><line x1="93.34" y1="130.58" x2="121.79" y2="175.12"/><line x1="198.23" y1="175.10" x2="205.70" y2="175.10"/><line x1="242.82" y1="130.58" x2="205.70" y2="175.10"/><line x1="121.77" y1="175.10" x2="114.30" y2="175.10"/><line x1="77.18" y1="130.58" x2="114.30" y2="175.10"/><line x1="205.70" y1="175.10" x2="208.25" y2="175.10"/><line x1="245.69" y1="130.58" x2="208.25" y2="175.10"/><line x1="114.30" y1="175.10" x2="111.75" y2="175.10"/><line x1="74.31" y1="130.58" x2="111.75" y2="175.10"/><line x1="203.10" y1="130.59" x2="198.21" y2="175.12"/><line x1="116.90" y1="130.59" x2="121.79" y2="175.12"/><line x1="198.20" y1="175.12" x2="160.00" y2="175.12"/><line x1="160.00" y1="130.59" x2="160.00" y2="175.12"/><line x1="160.00" y1="175.12" x2="121.80" y2="175.12"/><line x1="198.20" y1="175.12" x2="160.00" y2="217.99"/><line x1="205.70" y1="175.10" x2="160.00" y2="217.99"/><line x1="121.80" y1="175.12" x2="160.00" y2="217.99"/><line x1="114.30" y1="175.10" x2="160.00" y2="217.99"/><line x1="208.25" y1="175.10" x2="160.00" y2="220.00"/><line x1="160.00" y1="217.99" x2="160.00" y2="220.00"/><line x1="111.75" y1="175.10" x2="160.00" y2="220.00"/><line x1="160.00" y1="175.12" x2="160.00" y2="217.99"/><line x1="279.98" y1="67.85" x2="246.43" y2="41.88"/><line x1="283.18" y1="67.85" x2="246.43" y2="41.88"/><line x1="40.02" y1="67.85" x2="73.57" y2="41.88"/><line x1="36.82" y1="67.85" x2="73.57" y2="41.88"/><line x1="270.60" y1="67.85" x2="270.52" y2="67.78"/><line x1="270.52" y1="67.78" x2="246.38" y2="41.84"/><line x1="73.62" y1="41.84" x2="49.48" y2="67.78"/><line x1="49.40" y1="67.85" x2="49.48" y2="67.78"/><line x1="260.86" y1="67.85" x2="224.98" y2="38.75"/><line x1="224.98" y1="38.75" x2="224.90" y2="38.67"/><line x1="270.52" y1="67.78" x2="224.90" y2="38.66"/><line x1="49.48" y1="67.78" x2="95.10" y2="38.66"/><line x1="95.10" y1="38.67" x2="95.02" y2="38.75"/><line x1="59.14" y1="67.85" x2="95.02" y2="38.75"/><line x1="237.69" y1="67.85" x2="225.00" y2="38.80"/><line x1="82.31" y1="67.85" x2="95.00" y2="38.80"/><line x1="208.08" y1="67.85" x2="225.00" y2="38.80"/><line x1="111.92" y1="67.85" x2="95.00" y2="38.80"/><line x1="207.90" y1="67.85" x2="160.00" y2="42.31"/><line x1="160.00" y1="67.85" x2="160.00" y2="42.31"/><line x1="112.10" y1="67.85" x2="160.00" y2="42.31"/><line x1="215.47" y1="20.00" x2="246.39" y2="41.85"/><line x1="104.53" y1="20.00" x2="73.61" y2="41.85"/><line x1="211.95" y1="20.00" x2="224.90" y2="38.66"/><line x1="211.99" y1="20.00" x2="246.38" y2="41.84"/><line x1="108.05" y1="20.00" x2="95.10" y2="38.66"/><line x1="108.01" y1="20.00" x2="73.62" y2="41.84"/><line x1="160.00" y1="42.24" x2="184.06" y2="20.29"/><line x1="224.90" y1="38.67" x2="184.06" y2="20.29"/><line x1="95.10" y1="38.67" x2="135.94" y2="20.29"/><line x1="160.00" y1="42.24" x2="135.94" y2="20.29"/><line x1="136.48" y1="20.00" x2="135.94" y2="20.29"/><line x1="183.52" y1="20.00" x2="184.06" y2="20.29"/></g></svg>