<svg xmlns="http://www.w3.org/2000/svg" viewBox="0 0 320 240" role="img" aria-label="TOP"><rect width="100%" height="100%" fill="#fff"/><g stroke="#262a2b" stroke-width="1" fill="none" vector-effect="non-scaling-stroke"><line x1="118.27" y1="166.21" x2="120.17" y2="180.62"/><line x1="120.17" y1="180.62" x2="141.68" y2="183.45"/><line x1="141.68" y1="183.45" x2="178.32" y2="183.45"/><line x1="178.32" y1="183.45" x2="199.83" y2="180.62"/><line x1="199.83" y1="180.62" x2="201.73" y2="166.21"/><line x1="201.73" y1="166.21" x2="203.75" y2="135.40"/><line x1="203.75" y1="135.40" x2="203.75" y2="104.60"/><line x1="203.75" y1="104.60" x2="201.73" y2="73.79"/><line x1="201.73" y1="73.79" x2="199.83" y2="59.38"/><line x1="199.83" y1="59.38" x2="178.32" y2="56.55"/><line x1="178.32" y1="56.55" x2="141.68" y2="56.55"/><line x1="141.68" y1="56.55" x2="120.17" y2="59.38"/><line x1="120.17" y1="59.38" x2="118.27" y2="73.79"/><line x1="118.27" y1="73.79" x2="116.25" y2="104.60"/><line x1="116.25" y1="104.60" x2="116.25" y2="135.40"/><line x1="118.27" y1="166.21" x2="116.25" y2="135.40"/><line x1="240.30" y1="136.47" x2="240.30" y2="136.60"/><line x1="240.30" y1="103.40" x2="240.30" y2="136.60"/><line x1="240.30" y1="103.40" x2="240.30" y2="103.53"/><line x1="240.30" y1="136.47" x2="240.30" y2="103.53"/><line x1="79.70" y1="136.47" x2="79.70" y2="103.53"/><line x1="79.70" y1="103.53" x2="79.70" y2="103.40"/><line x1="79.70" y1="136.60" x2="79.70" y2="103.40"/><line x1="79.70" y1="136.47" x2="79.70" y2="136.60"/><line x1="240.30" y1="103.35" x2="238.12" y2="70.21"/><line x1="240.30" y1="103.40" x2="238.12" y2="70.21"/><line x1="79.70" y1="103.35" x2="81.88" y2="70.21"/><line x1="79.70" y1="103.40" x2="81.88" y2="70.21"/><line x1="79.70" y1="136.65" x2="81.88" y2="169.79"/><line x1="79.70" y1="136.60" x2="81.88" y2="169.79"/><line x1="240.30" y1="136.65" x2="238.12" y2="169.79"/><line x1="240.30" y1="136.60" x2="238.12" y2="169.79"/><line x1="238.12" y1="70.21" x2="238.11" y2="70.12"/><line x1="233.78" y1="37.18" x2="238.12" y2="70.16"/><line x1="238.11" y1="70.12" x2="233.78" y2="37.18"/><line x1="86.22" y1="37.18" x2="81.88" y2="70.16"/><line x1="81.88" y1="70.21" x2="81.89" y2="70.12"/><line x1="86.22" y1="37.18" x2="81.89" y2="70.12"/><line x1="86.22" y1="202.82" x2="81.89" y2="169.88"/><line x1="81.88" y1="169.79" x2="81.89" y2="169.88"/><line x1="86.22" y1="202.82" x2="81.88" y2="169.84"/><line x1="233.78" y1="202.82" x2="238.12" y2="169.84"/><line x1="238.12" y1="169.79" x2="238.11" y2="169.88"/><line x1="238.11" y1="169.88" x2="233.78" y2="202.82"/><line x1="233.78" y1="37.18" x2="222.03" y2="25.43"/><line x1="233.77" y1="37.17" x2="222.03" y2="25.43"/><line x1="86.22" y1="37.18" x2="97.97" y2="25.43"/><line x1="86.23" y1="37.17" x2="97.97" y2="25.43"/><line x1="97.97" y1="214.57" x2="86.23" y2="202.83"/><line x1="97.97" y1="214.57" x2="86.22" y2="202.82"/><line x1="233.78" y1="202.82" x2="222.03" y2="214.57"/><line x1="233.77" y1="202.83" x2="222.03" y2="214.57"/><line x1="222.02" y1="25.43" x2="180.80" y2="20.00"/><line x1="180.80" y1="20.00" x2="180.91" y2="20.01"/><line x1="180.91" y1="20.01" x2="222.01" y2="25.43"/><line x1="139.09" y1="20.01" x2="139.20" y2="20.00"/><line x1="97.98" y1="25.43" x2="139.20" y2="20.00"/><line x1="139.09" y1="20.01" x2="97.99" y2="25.43"/><line x1="139.09" y1="219.99" x2="97.99" y2="214.57"/><line x1="97.98" y1="214.57" x2="139.20" y2="220.00"/><line x1="139.09" y1="219.99" x2="139.20" y2="220.00"/><line x1="222.02" y1="214.57" x2="180.80" y2="220.00"/><line x1="222.01" y1="214.57" x2="180.91" y2="219.99"/><line x1="180.80" y1="220.00" x2="180.91" y2="219.99"/><line x1="180.80" y1="20.00" x2="139.20" y2="20.00"/><line x1="180.74" y1="20.00" x2="139.26" y2="20.00"/><line x1="139.20" y1="220.00" x2="180.80" y2="220.00"/><line x1="139.26" y1="220.00" x2="180.74" y2="220.00"/><line x1="227.23" y1="103.96" x2="227.23" y2="136.04"/><line x1="240.30" y1="136.47" x2="227.23" y2="136.04"/><line x1="240.30" y1="103.53" x2="227.23" y2="103.96"/><line x1="79.70" y1="136.47" x2="92.77" y2="136.04"/><line x1="92.77" y1="136.04" x2="92.77" y2="103.96"/><line x1="79.70" y1="103.53" x2="92.77" y2="103.96"/><line x1="238.11" y1="70.12" x2="225.02" y2="71.41"/><line x1="225.02" y1="71.41" x2="227.14" y2="103.71"/><line x1="227.23" y1="103.96" x2="227.14" y2="103.71"/><line x1="92.77" y1="103.96" x2="92.86" y2="103.71"/><line x1="92.86" y1="103.71" x2="94.98" y2="71.41"/><line x1="81.89" y1="70.12" x2="94.98" y2="71.41"/><line x1="81.89" y1="169.88" x2="94.98" y2="168.59"/><line x1="94.98" y1="168.59" x2="92.86" y2="136.29"/><line x1="92.77" y1="136.04" x2="92.86" y2="136.29"/><line x1="227.23" y1="136.04" x2="227.14" y2="136.29"/><line x1="227.14" y1="136.29" x2="225.02" y2="168.59"/><line x1="238.11" y1="169.88" x2="225.02" y2="168.59"/><line x1="233.77" y1="37.17" x2="221.64" y2="45.11"/><line x1="221.64" y1="45.11" x2="221.57" y2="45.19"/><line x1="221.57" y1="45.19" x2="225.02" y2="71.40"/><line x1="94.98" y1="71.40" x2="98.43" y2="45.19"/><line x1="98.43" y1="45.19" x2="98.36" y2="45.11"/><line x1="86.23" y1="37.17" x2="98.36" y2="45.11"/><line x1="86.23" y1="202.83" x2="98.36" y2="194.89"/><line x1="98.36" y1="194.89" x2="98.43" y2="194.81"/><line x1="98.43" y1="194.81" x2="94.98" y2="168.60"/><line x1="225.02" y1="168.60" x2="221.57" y2="194.81"/><line x1="221.57" y1="194.81" x2="221.64" y2="194.89"/><line x1="233.77" y1="202.83" x2="221.64" y2="194.89"/><line x1="222.01" y1="25.43" x2="214.09" y2="37.56"/><line x1="221.64" y1="45.11" x2="214.09" y2="37.56"/><line x1="97.99" y1="25.43" x2="105.91" y2="37.56"/><line x1="98.36" y1="45.11" x2="105.91" y2="37.56"/><line x1="97.99" y1="214.57" x2="105.91" y2="202.44"/><line x1="98.36" y1="194.89" x2="105.91" y2="202.44"/><line x1="221.64" y1="194.89" x2="214.09" y2="202.44"/><line x1="222.01" y1="214.57" x2="214.09" y2="202.44"/><line x1="180.91" y1="20.01" x2="180.05" y2="33.09"/><line x1="180.05" y1="33.09" x2="214.08" y2="37.57"/><line x1="105.92" y1="37.57" x2="139.95" y2="33.09"/><line x1="139.09" y1="20.01" x2="139.95" y2="33.09"/><line x1="139.09" y1="219.99" x2="139.95" y2="206.91"/><line x1="105.92" y1="202.43" x2="139.95" y2="206.91"/><line x1="214.08" y1="202.43" x2="180.05" y2="206.91"/><line x1="180.91" y1="219.99" x2="180.05" y2="206.91"/><line x1="139.95" y1="33.09" x2="140.04" y2="33.14"/><line x1="140.04" y1="33.14" x2="179.96" y2="33.14"/><line x1="180.05" y1="33.09" x2="179.96" y2="33.14"/><line x1="180.05" y1="206.91" x2="179.96" y2="206.86"/><line x1="179.96" y1="206.86" x2="140.04" y2="206.86"/><line x1="139.95" y1="206.91" x2="140.04" y2="206.86"/><line x1="227.14" y1="103.71" x2="213.13" y2="104.16"/><line x1="213.13" y1="104.16" x2="213.09" y2="104.29"/><line x1="213.09" y1="104.29" x2="213.09" y2="135.71"/><line x1="213.09" y1="135.71" x2="213.13" y2="135.84"/><line x1="227.14" y1="136.29" x2="213.13" y2="135.84"/><line x1="92.86" y1="136.29" x2="106.87" y2="135.84"/><line x1="106.87" y1="135.84" x2="106.91" y2="135.71"/><line x1="106.91" y1="135.71" x2="106.91" y2="104.29"/><line x1="106.91" y1="104.29" x2="106.87" y2="104.16"/><line x1="92.86" y1="103.71" x2="106.87" y2="104.16"/><line x1="213.13" y1="104.16" x2="211.07" y2="72.87"/><line x1="225.02" y1="71.40" x2="211.09" y2="72.77"/><line x1="211.07" y1="72.87" x2="211.09" y2="72.77"/><line x1="106.87" y1="104.16" x2="108.93" y2="72.87"/><line x1="108.93" y1="72.87" x2="108.91" y2="72.77"/><line x1="94.98" y1="71.40" x2="108.91" y2="72.77"/><line x1="94.98" y1="168.60" x2="108.91" y2="167.23"/><line x1="108.91" y1="167.23" x2="108.93" y2="167.13"/><line x1="106.87" y1="135.84" x2="108.93" y2="167.13"/><line x1="213.13" y1="135.84" x2="211.07" y2="167.13"/><line x1="211.07" y1="167.13" x2="211.09" y2="167.23"/><line x1="225.02" y1="168.60" x2="211.09" y2="167.23"/><line x1="221.57" y1="45.19" x2="208.58" y2="53.68"/><line x1="211.09" y1="72.77" x2="208.58" y2="53.68"/><line x1="98.43" y1="45.19" x2="111.42" y2="53.68"/><line x1="108.91" y1="72.77" x2="111.42" y2="53.68"/><line x1="98.43" y1="194.81" x2="111.42" y2="186.32"/><line x1="108.91" y1="167.23" x2="111.42" y2="186.32"/><line x1="211.09" y1="167.23" x2="208.58" y2="186.32"/><line x1="221.57" y1="194.81" x2="208.58" y2="186.32"/><line x1="214.08" y1="37.57" x2="205.54" y2="50.62"/><line x1="205.53" y1="50.68" x2="208.53" y2="53.69"/><line x1="111.47" y1="53.69" x2="114.47" y2="50.68"/><line x1="105.92" y1="37.57" x2="114.46" y2="50.62"/><line x1="105.92" y1="202.43" x2="114.46" y2="189.38"/><line x1="114.47" y1="189.32" x2="111.47" y2="186.31"/><line x1="214.08" y1="202.43" x2="205.54" y2="189.38"/><line x1="208.53" y1="186.31" x2="205.53" y2="189.32"/><line x1="205.54" y1="50.62" x2="179.04" y2="47.13"/><line x1="179.96" y1="33.14" x2="179.04" y2="47.13"/><line x1="114.46" y1="50.62" x2="140.96" y2="47.13"/><line x1="140.04" y1="33.14" x2="140.96" y2="47.13"/><line x1="140.04" y1="206.86" x2="140.96" y2="192.87"/><line x1="114.46" y1="189.38" x2="140.96" y2="192.87"/><line x1="205.54" y1="189.38" x2="179.04" y2="192.87"/><line x1="179.96" y1="206.86" x2="179.04" y2="192.87"/><line x1="140.96" y1="47.13" x2="141.06" y2="47.18"/><line x1="141.06" y1="47.18" x2="178.94" y2="47.18"/><line x1="179.04" y1="47.13" x2="178.94" y2="47.18"/><line x1="179.04" y1="192.87" x2="178.94" y2="192.82"/><line x1="178.94" y1="192.82" x2="141.06" y2="192.82"/><line x1="140.96" y1="192.87" x2="141.06" y2="192.82"/><line x1="203.75" y1="104.60" x2="213.09" y2="104.29"/><line x1="203.75" y1="135.40" x2="213.09" y2="135.71"/><line x1="116.25" y1="135.40" x2="106.91" y2="135.71"/><line x1="116.25" y1="104.60" x2="106.91" y2="104.29"/><line x1="201.73" y1="73.79" x2="211.07" y2="72.87"/><line x1="118.27" y1="73.79" x2="108.93" y2="72.87"/><line x1="118.27" y1="166.21" x2="108.93" y2="167.13"/><line x1="201.73" y1="166.21" x2="211.07" y2="167.13"/><line x1="208.53" y1="53.69" x2="199.86" y2="59.35"/><line x1="111.47" y1="53.69" x2="120.14" y2="59.35"/><line x1="111.47" y1="186.31" x2="120.14" y2="180.65"/><line x1="208.53" y1="186.31" x2="199.86" y2="180.65"/><line x1="205.53" y1="50.68" x2="199.86" y2="59.35"/><line x1="114.47" y1="50.68" x2="120.14" y2="59.35"/><line x1="114.47" y1="189.32" x2="120.14" y2="180.65"/><line x1="205.53" y1="189.32" x2="199.86" y2="180.65"/><line x1="178.32" y1="56.55" x2="178.94" y2="47.18"/><line x1="141.68" y1="56.55" x2="141.06" y2="47.18"/><line x1="141.68" y1="183.45" x2="141.06" y2="192.82"/><line x1="178.32" y1="183.45" x2="178.94" y2="192.82"/></g></svg>