<svg xmlns="http://www.w3.org/2000/svg" viewBox="0 0 320 240" role="img" aria-label="FRONT"><rect width="100%" height="100%" fill="#fff"/><g stroke="#262a2b" stroke-width="1" fill="none" vector-effect="non-scaling-stroke"><line x1="122.90" y1="26.38" x2="159.99" y2="26.38"/><line x1="160.01" y1="26.38" x2="197.10" y2="26.38"/><line x1="300.00" y1="92.10" x2="300.00" y2="83.83"/><line x1="20.00" y1="92.10" x2="20.00" y2="83.83"/><line x1="110.09" y1="83.82" x2="209.91" y2="83.82"/><line x1="209.93" y1="83.82" x2="209.93" y2="92.10"/><line x1="209.90" y1="92.11" x2="110.10" y2="92.11"/><line x1="110.07" y1="92.10" x2="110.07" y2="83.82"/><line x1="299.99" y1="92.11" x2="299.90" y2="92.19"/><line x1="299.90" y1="92.19" x2="187.94" y2="191.03"/><line x1="20.01" y1="92.11" x2="20.10" y2="92.19"/><line x1="20.10" y1="92.19" x2="132.06" y2="191.03"/><line x1="209.90" y1="92.11" x2="160.00" y2="204.14"/><line x1="110.10" y1="92.11" x2="160.00" y2="204.14"/><line x1="132.06" y1="191.03" x2="160.00" y2="213.62"/><line x1="20.10" y1="92.19" x2="160.00" y2="204.19"/><line x1="160.00" y1="213.62" x2="160.00" y2="204.19"/><line x1="187.94" y1="191.03" x2="160.00" y2="213.62"/><line x1="299.90" y1="92.19" x2="160.00" y2="204.19"/><line x1="40.54" y1="92.12" x2="159.92" y2="204.11"/><line x1="159.92" y1="204.11" x2="160.00" y2="204.19"/><line x1="20.01" y1="92.11" x2="40.53" y2="92.11"/><line x1="299.99" y1="92.11" x2="279.47" y2="92.11"/><line x1="160.00" y1="204.19" x2="160.08" y2="204.11"/><line x1="160.08" y1="204.11" x2="279.46" y2="92.12"/><line x1="40.54" y1="92.12" x2="73.01" y2="92.12"/><line x1="159.92" y1="204.11" x2="73.01" y2="92.12"/><line x1="160.08" y1="204.11" x2="246.99" y2="92.12"/><line x1="279.46" y1="92.12" x2="246.99" y2="92.12"/><line x1="209.93" y1="92.10" x2="246.95" y2="92.10"/><line x1="110.07" y1="92.10" x2="73.05" y2="92.10"/><line x1="73.05" y1="92.10" x2="73.05" y2="83.82"/><line x1="110.07" y1="83.82" x2="73.05" y2="83.82"/><line x1="209.93" y1="83.82" x2="246.95" y2="83.82"/><line x1="246.95" y1="92.10" x2="246.95" y2="83.82"/><line x1="40.53" y1="92.11" x2="40.53" y2="83.83"/><line x1="40.57" y1="83.81" x2="73.02" y2="83.81"/><line x1="246.98" y1="83.81" x2="279.43" y2="83.81"/><line x1="279.47" y1="92.11" x2="279.47" y2="83.83"/><line x1="40.53" y1="83.83" x2="20.01" y2="83.83"/><line x1="279.47" y1="83.83" x2="299.99" y2="83.83"/><line x1="299.99" y1="83.83" x2="264.29" y2="49.78"/><line x1="20.01" y1="83.83" x2="55.71" y2="49.78"/><line x1="209.91" y1="83.82" x2="160.02" y2="53.24"/><line x1="110.09" y1="83.82" x2="159.98" y2="53.24"/><line x1="264.29" y1="49.78" x2="232.69" y2="38.77"/><line x1="279.43" y1="83.81" x2="232.67" y2="38.78"/><line x1="40.57" y1="83.81" x2="87.33" y2="38.78"/><line x1="55.71" y1="49.78" x2="87.31" y2="38.77"/><line x1="232.67" y1="38.78" x2="195.33" y2="38.78"/><line x1="246.98" y1="83.81" x2="195.33" y2="38.78"/><line x1="87.33" y1="38.78" x2="124.67" y2="38.78"/><line x1="73.02" y1="83.81" x2="124.67" y2="38.78"/><line x1="160.02" y1="53.24" x2="195.05" y2="38.74"/><line x1="195.33" y1="38.78" x2="195.05" y2="38.74"/><line x1="124.67" y1="38.78" x2="124.95" y2="38.74"/><line x1="159.98" y1="53.24" x2="124.95" y2="38.74"/><line x1="232.69" y1="38.77" x2="197.11" y2="26.38"/><line x1="87.31" y1="38.77" x2="122.89" y2="26.38"/><line x1="159.99" y1="26.38" x2="124.95" y2="38.74"/><line x1="160.01" y1="26.38" x2="195.05" y2="38.74"/></g></svg>