<svg xmlns="http://www.w3.org/2000/svg" viewBox="0 0 320 240" role="img" aria-label="FRONT"><rect width="100%" height="100%" fill="#fff"/><g stroke="#262a2b" stroke-width="1" fill="none" vector-effect="non-scaling-stroke"><line x1="160.82" y1="31.30" x2="221.84" y2="31.30"/><line x1="221.84" y1="31.30" x2="248.76" y2="31.30"/><line x1="160.82" y1="31.30" x2="160.00" y2="31.30"/><line x1="160.00" y1="31.30" x2="159.18" y2="31.30"/><line x1="159.18" y1="31.30" x2="98.16" y2="31.30"/><line x1="98.16" y1="31.30" x2="71.24" y2="31.30"/><line x1="159.74" y1="208.50" x2="113.88" y2="170.35"/><line x1="113.88" y1="170.35" x2="32.19" y2="72.38"/><line x1="159.74" y1="208.50" x2="32.19" y2="72.38"/><line x1="160.26" y1="208.50" x2="287.81" y2="72.38"/><line x1="206.12" y1="170.35" x2="287.81" y2="72.38"/><line x1="206.12" y1="170.35" x2="160.26" y2="208.50"/><line x1="80.41" y1="71.63" x2="160.00" y2="173.30"/><line x1="160.00" y1="173.30" x2="160.00" y2="208.69"/><line x1="160.00" y1="208.69" x2="159.75" y2="208.37"/><line x1="80.34" y1="71.63" x2="159.75" y2="208.37"/><line x1="239.66" y1="71.63" x2="160.25" y2="208.37"/><line x1="160.00" y1="208.69" x2="160.25" y2="208.37"/><line x1="160.00" y1="173.30" x2="239.59" y2="71.63"/><line x1="80.34" y1="71.63" x2="49.40" y2="71.63"/><line x1="159.75" y1="208.37" x2="49.40" y2="71.63"/><line x1="239.66" y1="71.63" x2="270.60" y2="71.63"/><line x1="160.25" y1="208.37" x2="270.60" y2="71.63"/><line x1="31.55" y1="71.62" x2="49.38" y2="71.62"/><line x1="159.74" y1="208.50" x2="160.00" y2="208.70"/><line x1="32.19" y1="72.38" x2="31.58" y2="71.68"/><line x1="270.62" y1="71.62" x2="288.45" y2="71.62"/><line x1="287.81" y1="72.38" x2="288.42" y2="71.68"/><line x1="160.26" y1="208.50" x2="160.00" y2="208.70"/><line x1="31.55" y1="71.63" x2="20.00" y2="71.63"/><line x1="20.00" y1="63.76" x2="20.00" y2="71.63"/><line x1="20.00" y1="63.76" x2="31.55" y2="63.76"/><line x1="31.55" y1="71.62" x2="31.55" y2="63.76"/><line x1="288.45" y1="71.63" x2="300.00" y2="71.63"/><line x1="288.45" y1="71.62" x2="288.45" y2="63.76"/><line x1="300.00" y1="63.76" x2="288.45" y2="63.76"/><line x1="300.00" y1="63.76" x2="300.00" y2="71.63"/><line x1="49.38" y1="71.62" x2="49.38" y2="63.75"/><line x1="31.55" y1="63.76" x2="31.63" y2="63.75"/><line x1="31.63" y1="63.75" x2="49.37" y2="63.75"/><line x1="270.62" y1="71.62" x2="270.62" y2="63.75"/><line x1="270.63" y1="63.75" x2="288.37" y2="63.75"/><line x1="288.45" y1="63.76" x2="288.37" y2="63.75"/><line x1="49.38" y1="63.75" x2="80.40" y2="63.75"/><line x1="80.40" y1="71.62" x2="80.40" y2="63.75"/><line x1="239.60" y1="71.62" x2="239.60" y2="63.75"/><line x1="270.62" y1="63.75" x2="239.60" y2="63.75"/><line x1="80.40" y1="63.75" x2="160.00" y2="63.75"/><line x1="160.00" y1="63.75" x2="160.00" y2="71.63"/><line x1="160.00" y1="71.63" x2="80.47" y2="71.63"/><line x1="160.00" y1="63.75" x2="239.60" y2="63.75"/><line x1="160.00" y1="71.63" x2="239.53" y2="71.63"/><line x1="31.58" y1="71.68" x2="55.57" y2="115.97"/><line x1="20.00" y1="71.63" x2="55.57" y2="115.97"/><line x1="300.00" y1="71.63" x2="264.43" y2="115.97"/><line x1="288.42" y1="71.68" x2="264.43" y2="115.97"/><line x1="160.00" y1="71.63" x2="160.00" y2="110.97"/><line x1="80.47" y1="71.63" x2="160.00" y2="110.97"/><line x1="239.53" y1="71.63" x2="160.00" y2="110.97"/><line x1="113.88" y1="170.35" x2="55.57" y2="115.97"/><line x1="206.12" y1="170.35" x2="264.43" y2="115.97"/><line x1="160.00" y1="173.30" x2="160.00" y2="110.97"/><line x1="288.45" y1="63.74" x2="290.80" y2="52.89"/><line x1="300.00" y1="63.76" x2="290.80" y2="52.89"/><line x1="20.00" y1="63.76" x2="29.20" y2="52.89"/><line x1="29.20" y1="52.89" x2="31.55" y2="63.74"/><line x1="288.37" y1="63.75" x2="222.10" y2="31.45"/><line x1="270.63" y1="63.75" x2="222.10" y2="31.45"/><line x1="31.63" y1="63.75" x2="97.90" y2="31.45"/><line x1="49.37" y1="63.75" x2="97.90" y2="31.45"/><line x1="239.60" y1="63.75" x2="221.86" y2="31.31"/><line x1="222.10" y1="31.45" x2="221.86" y2="31.31"/><line x1="97.90" y1="31.45" x2="98.14" y2="31.31"/><line x1="80.40" y1="63.75" x2="98.14" y2="31.31"/><line x1="160.00" y1="63.75" x2="160.00" y2="54.58"/><line x1="160.00" y1="54.58" x2="239.43" y2="63.72"/><line x1="239.60" y1="63.75" x2="239.43" y2="63.72"/><line x1="80.40" y1="63.75" x2="80.57" y2="63.72"/><line x1="160.00" y1="54.58" x2="80.57" y2="63.72"/><line x1="288.45" y1="63.74" x2="248.81" y2="31.32"/><line x1="290.80" y1="52.89" x2="248.81" y2="31.32"/><line x1="29.20" y1="52.89" x2="71.19" y2="31.32"/><line x1="31.55" y1="63.74" x2="71.19" y2="31.32"/><line x1="160.82" y1="31.30" x2="239.43" y2="63.72"/><line x1="159.18" y1="31.30" x2="80.57" y2="63.72"/><line x1="160.00" y1="31.30" x2="160.00" y2="54.58"/></g></svg>