<svg xmlns="http://www.w3.org/2000/svg" viewBox="0 0 320 240" role="img" aria-label="FRONT"><rect width="100%" height="100%" fill="#fff"/><g stroke="#262a2b" stroke-width="1" fill="none" vector-effect="non-scaling-stroke"><line x1="123.26" y1="23.95" x2="237.08" y2="23.95"/><line x1="123.14" y1="23.95" x2="66.60" y2="23.95"/><line x1="300.00" y1="75.54" x2="300.00" y2="71.72"/><line x1="300.00" y1="75.54" x2="92.61" y2="75.54"/><line x1="92.61" y1="75.54" x2="92.61" y2="71.72"/><line x1="300.00" y1="71.72" x2="92.61" y2="71.72"/><line x1="92.61" y1="75.54" x2="20.00" y2="75.54"/><line x1="20.00" y1="75.54" x2="20.00" y2="71.72"/><line x1="92.61" y1="71.72" x2="20.00" y2="71.72"/><line x1="141.37" y1="158.80" x2="156.10" y2="182.67"/><line x1="156.10" y1="182.67" x2="136.56" y2="216.05"/><line x1="136.56" y1="216.05" x2="134.86" y2="199.07"/><line x1="134.86" y1="199.07" x2="141.34" y2="158.80"/><line x1="136.56" y1="216.05" x2="107.66" y2="190.92"/><line x1="107.66" y1="190.92" x2="74.54" y2="118.57"/><line x1="134.86" y1="199.07" x2="74.54" y2="118.57"/><line x1="107.66" y1="190.92" x2="107.45" y2="190.74"/><line x1="107.45" y1="190.74" x2="61.18" y2="150.52"/><line x1="300.00" y1="75.54" x2="136.56" y2="216.05"/><line x1="156.10" y1="182.67" x2="299.97" y2="75.56"/><line x1="141.37" y1="158.80" x2="299.97" y2="75.56"/><line x1="141.34" y1="158.80" x2="92.61" y2="75.54"/><line x1="92.61" y1="75.54" x2="74.53" y2="118.55"/><line x1="74.53" y1="118.55" x2="20.01" y2="75.55"/><line x1="20.00" y1="75.54" x2="53.44" y2="142.98"/><line x1="61.18" y1="150.52" x2="53.44" y2="142.98"/><line x1="107.45" y1="190.74" x2="20.01" y2="75.55"/><line x1="300.00" y1="71.71" x2="189.42" y2="31.96"/><line x1="92.61" y1="71.72" x2="189.41" y2="31.96"/><line x1="20.00" y1="71.72" x2="82.12" y2="33.03"/><line x1="82.13" y1="33.03" x2="92.61" y2="71.71"/><line x1="20.00" y1="71.71" x2="34.75" y2="32.48"/><line x1="189.42" y1="31.96" x2="237.08" y2="23.95"/><line x1="300.00" y1="71.71" x2="237.08" y2="23.95"/><line x1="123.26" y1="23.95" x2="189.41" y2="31.96"/><line x1="123.19" y1="23.95" x2="92.61" y2="71.71"/><line x1="123.14" y1="23.95" x2="82.13" y2="33.03"/><line x1="66.60" y1="23.95" x2="82.12" y2="33.03"/><line x1="66.57" y1="23.95" x2="34.75" y2="32.48"/></g></svg>