<svg xmlns="http://www.w3.org/2000/svg" viewBox="0 0 320 240" role="img" aria-label="TOP"><rect width="100%" height="100%" fill="#fff"/><g stroke="#262a2b" stroke-width="1" fill="none" vector-effect="non-scaling-stroke"><line x1="198.10" y1="165.39" x2="198.10" y2="74.61"/><line x1="198.10" y1="74.61" x2="121.90" y2="74.61"/><line x1="121.90" y1="74.61" x2="121.90" y2="165.39"/><line x1="198.10" y1="165.39" x2="121.90" y2="165.39"/><line x1="276.82" y1="196.22" x2="286.86" y2="120.00"/><line x1="43.18" y1="196.22" x2="33.14" y2="120.00"/><line x1="33.14" y1="120.00" x2="43.18" y2="43.78"/><line x1="286.86" y1="120.00" x2="276.82" y2="43.78"/><line x1="66.96" y1="220.00" x2="253.04" y2="220.00"/><line x1="66.96" y1="20.00" x2="253.04" y2="20.00"/><line x1="43.18" y1="43.78" x2="66.96" y2="20.00"/><line x1="276.82" y1="43.78" x2="253.04" y2="20.00"/><line x1="253.04" y1="220.00" x2="276.82" y2="196.22"/><line x1="66.96" y1="220.00" x2="43.18" y2="196.22"/><line x1="276.82" y1="43.78" x2="226.59" y2="80.46"/><line x1="286.86" y1="120.00" x2="226.59" y2="80.46"/><line x1="33.14" y1="120.00" x2="93.41" y2="80.46"/><line x1="43.18" y1="43.78" x2="93.41" y2="80.46"/><line x1="33.14" y1="120.00" x2="93.41" y2="159.54"/><line x1="43.18" y1="196.22" x2="93.41" y2="159.54"/><line x1="276.82" y1="196.22" x2="226.59" y2="159.54"/><line x1="286.86" y1="120.00" x2="226.59" y2="159.54"/><line x1="198.10" y1="74.61" x2="253.04" y2="20.00"/><line x1="198.10" y1="74.61" x2="226.59" y2="80.46"/><line x1="121.90" y1="74.61" x2="66.96" y2="20.00"/><line x1="121.90" y1="74.61" x2="93.41" y2="80.46"/><line x1="121.90" y1="165.39" x2="66.96" y2="220.00"/><line x1="121.90" y1="165.39" x2="93.41" y2="159.54"/><line x1="198.10" y1="165.39" x2="253.04" y2="220.00"/><line x1="198.10" y1="165.39" x2="226.59" y2="159.54"/><line x1="226.59" y1="80.46" x2="226.59" y2="159.54"/><line x1="93.41" y1="80.46" x2="93.41" y2="159.54"/></g></svg>