# 心形 / Facet 96 stock preset
# Unit unspecified; maximum cross-section extent 2, height 2; +Z up
v -0.0340022757 0.5990545551 -1
v -0.0735393882 0.6626298013 -1
v -0.1179437112 0.7189688405 -1
v -0.1665476186 0.7680716729 -1
v -0.2186834841 0.8099382984 -1
v -0.2736836816 0.844568717 -1
v -0.3308805846 0.8719629288 -1
v -0.3896065671 0.8921209337 -1
v -0.4491940028 0.9050427317 -1
v -0.5089752655 0.9107283228 -1
v -0.5682827289 0.909177707 -1
v -0.6264487669 0.9003908844 -1
v -0.6828057531 0.8843678549 -1
v -0.7366860613 0.8611086185 -1
v -0.7874220654 0.8306131752 -1
v -0.8343461391 0.7928815251 -1
v -0.8767906561 0.747913668 -1
v -0.9140879903 0.6957096041 -1
v -0.9455705153 0.6362693333 -1
v -0.9705706051 0.5695928557 -1
v -0.9884206332 0.4956801711 -1
v -0.9984529736 0.4145312797 -1
v -1 0.3261461814 -1
v -0.9923940861 0.2305248763 -1
v -0.9821183852 0.1700609119 -1
v -0.9664241437 0.1080032592 -1
v -0.9456817864 0.0447223429 -1
v -0.9202617382 -0.0194114121 -1
v -0.890534424 -0.0840275809 -1
v -0.8568702687 -0.1487557385 -1
v -0.8196396972 -0.2132254602 -1
v -0.7792131343 -0.2770663211 -1
v -0.7359610049 -0.3399078963 -1
v -0.6902537339 -0.4013797609 -1
v -0.6424617461 -0.46111149 -1
v -0.5929554665 -0.5187326588 -1
v -0.5421053198 -0.5738728423 -1
v -0.4902817311 -0.6261616158 -1
v -0.4378551251 -0.6752285543 -1
v -0.3851959268 -0.720703233 -1
v -0.3326745609 -0.7622152269 -1
v -0.2806614525 -0.7993941112 -1
v -0.2295270263 -0.8318694611 -1
v -0.1796417073 -0.8592708517 -1
v -0.1313759202 -0.881227858 -1
v -0.0851000901 -0.8973700552 -1
v -0.0411846417 -0.9073270184 -1
v 0 -0.9107283228 -1
v 0.0411846417 -0.9073270184 -1
v 0.0851000901 -0.8973700552 -1
v 0.1313759202 -0.881227858 -1
v 0.1796417073 -0.8592708517 -1
v 0.2295270263 -0.8318694611 -1
v 0.2806614525 -0.7993941112 -1
v 0.3326745609 -0.7622152269 -1
v 0.3851959268 -0.720703233 -1
v 0.4378551251 -0.6752285543 -1
v 0.4902817311 -0.6261616158 -1
v 0.5421053198 -0.5738728423 -1
v 0.5929554665 -0.5187326588 -1
v 0.6424617461 -0.46111149 -1
v 0.6902537339 -0.4013797609 -1
v 0.7359610049 -0.3399078963 -1
v 0.7792131343 -0.2770663211 -1
v 0.8196396972 -0.2132254602 -1
v 0.8568702687 -0.1487557385 -1
v 0.890534424 -0.0840275809 -1
v 0.9202617382 -0.0194114121 -1
v 0.9456817864 0.0447223429 -1
v 0.9664241437 0.1080032592 -1
v 0.9821183852 0.1700609119 -1
v 0.9923940861 0.2305248763 -1
v 1 0.3261461814 -1
v 0.9984529736 0.4145312797 -1
v 0.9884206332 0.4956801711 -1
v 0.9705706051 0.5695928557 -1
v 0.9455705153 0.6362693333 -1
v 0.9140879903 0.6957096041 -1
v 0.8767906561 0.747913668 -1
v 0.8343461391 0.7928815251 -1
v 0.7874220654 0.8306131752 -1
v 0.7366860613 0.8611086185 -1
v 0.6828057531 0.8843678549 -1
v 0.6264487669 0.9003908844 -1
v 0.5682827289 0.909177707 -1
v 0.5089752655 0.9107283228 -1
v 0.4491940028 0.9050427317 -1
v 0.3896065671 0.8921209337 -1
v 0.3308805846 0.8719629288 -1
v 0.2736836816 0.844568717 -1
v 0.2186834841 0.8099382984 -1
v 0.1665476186 0.7680716729 -1
v 0.1179437112 0.7189688405 -1
v 0.0735393882 0.6626298013 -1
v 0.0340022757 0.5990545551 -1
v 0 0.5282431021 -1
v -0.0340022757 0.5990545551 1
v -0.0735393882 0.6626298013 1
v -0.1179437112 0.7189688405 1
v -0.1665476186 0.7680716729 1
v -0.2186834841 0.8099382984 1
v -0.2736836816 0.844568717 1
v -0.3308805846 0.8719629288 1
v -0.3896065671 0.8921209337 1
v -0.4491940028 0.9050427317 1
v -0.5089752655 0.9107283228 1
v -0.5682827289 0.909177707 1
v -0.6264487669 0.9003908844 1
v -0.6828057531 0.8843678549 1
v -0.7366860613 0.8611086185 1
v -0.7874220654 0.8306131752 1
v -0.8343461391 0.7928815251 1
v -0.8767906561 0.747913668 1
v -0.9140879903 0.6957096041 1
v -0.9455705153 0.6362693333 1
v -0.9705706051 0.5695928557 1
v -0.9884206332 0.4956801711 1
v -0.9984529736 0.4145312797 1
v -1 0.3261461814 1
v -0.9923940861 0.2305248763 1
v -0.9821183852 0.1700609119 1
v -0.9664241437 0.1080032592 1
v -0.9456817864 0.0447223429 1
v -0.9202617382 -0.0194114121 1
v -0.890534424 -0.0840275809 1
v -0.8568702687 -0.1487557385 1
v -0.8196396972 -0.2132254602 1
v -0.7792131343 -0.2770663211 1
v -0.7359610049 -0.3399078963 1
v -0.6902537339 -0.4013797609 1
v -0.6424617461 -0.46111149 1
v -0.5929554665 -0.5187326588 1
v -0.5421053198 -0.5738728423 1
v -0.4902817311 -0.6261616158 1
v -0.4378551251 -0.6752285543 1
v -0.3851959268 -0.720703233 1
v -0.3326745609 -0.7622152269 1
v -0.2806614525 -0.7993941112 1
v -0.2295270263 -0.8318694611 1
v -0.1796417073 -0.8592708517 1
v -0.1313759202 -0.881227858 1
v -0.0851000901 -0.8973700552 1
v -0.0411846417 -0.9073270184 1
v 0 -0.9107283228 1
v 0.0411846417 -0.9073270184 1
v 0.0851000901 -0.8973700552 1
v 0.1313759202 -0.881227858 1
v 0.1796417073 -0.8592708517 1
v 0.2295270263 -0.8318694611 1
v 0.2806614525 -0.7993941112 1
v 0.3326745609 -0.7622152269 1
v 0.3851959268 -0.720703233 1
v 0.4378551251 -0.6752285543 1
v 0.4902817311 -0.6261616158 1
v 0.5421053198 -0.5738728423 1
v 0.5929554665 -0.5187326588 1
v 0.6424617461 -0.46111149 1
v 0.6902537339 -0.4013797609 1
v 0.7359610049 -0.3399078963 1
v 0.7792131343 -0.2770663211 1
v 0.8196396972 -0.2132254602 1
v 0.8568702687 -0.1487557385 1
v 0.890534424 -0.0840275809 1
v 0.9202617382 -0.0194114121 1
v 0.9456817864 0.0447223429 1
v 0.9664241437 0.1080032592 1
v 0.9821183852 0.1700609119 1
v 0.9923940861 0.2305248763 1
v 1 0.3261461814 1
v 0.9984529736 0.4145312797 1
v 0.9884206332 0.4956801711 1
v 0.9705706051 0.5695928557 1
v 0.9455705153 0.6362693333 1
v 0.9140879903 0.6957096041 1
v 0.8767906561 0.747913668 1
v 0.8343461391 0.7928815251 1
v 0.7874220654 0.8306131752 1
v 0.7366860613 0.8611086185 1
v 0.6828057531 0.8843678549 1
v 0.6264487669 0.9003908844 1
v 0.5682827289 0.909177707 1
v 0.5089752655 0.9107283228 1
v 0.4491940028 0.9050427317 1
v 0.3896065671 0.8921209337 1
v 0.3308805846 0.8719629288 1
v 0.2736836816 0.844568717 1
v 0.2186834841 0.8099382984 1
v 0.1665476186 0.7680716729 1
v 0.1179437112 0.7189688405 1
v 0.0735393882 0.6626298013 1
v 0.0340022757 0.5990545551 1
v 0 0.5282431021 1
f 192 97 98
f 98 99 100
f 100 101 102
f 102 103 104
f 104 105 106
f 106 107 108
f 108 109 110
f 110 111 112
f 112 113 114
f 114 115 116
f 116 117 118
f 118 119 120
f 120 121 122
f 122 123 124
f 124 125 126
f 126 127 128
f 128 129 130
f 130 131 132
f 132 133 134
f 134 135 136
f 136 137 138
f 138 139 140
f 140 141 142
f 142 143 144
f 144 145 146
f 146 147 148
f 148 149 150
f 150 151 152
f 152 153 154
f 154 155 156
f 156 157 158
f 158 159 160
f 160 161 162
f 162 163 164
f 164 165 166
f 166 167 168
f 168 169 170
f 170 171 172
f 172 173 174
f 174 175 176
f 176 177 178
f 178 179 180
f 180 181 182
f 182 183 184
f 184 185 186
f 186 187 188
f 188 189 190
f 190 191 192
f 192 98 100
f 100 102 104
f 104 106 108
f 108 110 112
f 112 114 116
f 116 118 120
f 120 122 124
f 124 126 128
f 128 130 132
f 132 134 136
f 136 138 140
f 140 142 144
f 144 146 148
f 148 150 152
f 152 154 156
f 156 158 160
f 160 162 164
f 164 166 168
f 168 170 172
f 172 174 176
f 176 178 180
f 180 182 184
f 184 186 188
f 188 190 192
f 192 100 104
f 104 108 112
f 112 116 120
f 120 124 128
f 128 132 136
f 136 140 144
f 144 148 152
f 152 156 160
f 160 164 168
f 168 172 176
f 176 180 184
f 184 188 192
f 192 104 112
f 112 120 128
f 128 136 144
f 144 152 160
f 160 168 176
f 176 184 192
f 192 112 128
f 128 144 160
f 160 176 192
f 192 128 160
f 2 1 96
f 4 3 2
f 6 5 4
f 8 7 6
f 10 9 8
f 12 11 10
f 14 13 12
f 16 15 14
f 18 17 16
f 20 19 18
f 22 21 20
f 24 23 22
f 26 25 24
f 28 27 26
f 30 29 28
f 32 31 30
f 34 33 32
f 36 35 34
f 38 37 36
f 40 39 38
f 42 41 40
f 44 43 42
f 46 45 44
f 48 47 46
f 50 49 48
f 52 51 50
f 54 53 52
f 56 55 54
f 58 57 56
f 60 59 58
f 62 61 60
f 64 63 62
f 66 65 64
f 68 67 66
f 70 69 68
f 72 71 70
f 74 73 72
f 76 75 74
f 78 77 76
f 80 79 78
f 82 81 80
f 84 83 82
f 86 85 84
f 88 87 86
f 90 89 88
f 92 91 90
f 94 93 92
f 96 95 94
f 4 2 96
f 8 6 4
f 12 10 8
f 16 14 12
f 20 18 16
f 24 22 20
f 28 26 24
f 32 30 28
f 36 34 32
f 40 38 36
f 44 42 40
f 48 46 44
f 52 50 48
f 56 54 52
f 60 58 56
f 64 62 60
f 68 66 64
f 72 70 68
f 76 74 72
f 80 78 76
f 84 82 80
f 88 86 84
f 92 90 88
f 96 94 92
f 8 4 96
f 16 12 8
f 24 20 16
f 32 28 24
f 40 36 32
f 48 44 40
f 56 52 48
f 64 60 56
f 72 68 64
f 80 76 72
f 88 84 80
f 96 92 88
f 16 8 96
f 32 24 16
f 48 40 32
f 64 56 48
f 80 72 64
f 96 88 80
f 32 16 96
f 64 48 32
f 96 80 64
f 64 32 96
f 1 2 98 97
f 2 3 99 98
f 3 4 100 99
f 4 5 101 100
f 5 6 102 101
f 6 7 103 102
f 7 8 104 103
f 8 9 105 104
f 9 10 106 105
f 10 11 107 106
f 11 12 108 107
f 12 13 109 108
f 13 14 110 109
f 14 15 111 110
f 15 16 112 111
f 16 17 113 112
f 17 18 114 113
f 18 19 115 114
f 19 20 116 115
f 20 21 117 116
f 21 22 118 117
f 22 23 119 118
f 23 24 120 119
f 24 25 121 120
f 25 26 122 121
f 26 27 123 122
f 27 28 124 123
f 28 29 125 124
f 29 30 126 125
f 30 31 127 126
f 31 32 128 127
f 32 33 129 128
f 33 34 130 129
f 34 35 131 130
f 35 36 132 131
f 36 37 133 132
f 37 38 134 133
f 38 39 135 134
f 39 40 136 135
f 40 41 137 136
f 41 42 138 137
f 42 43 139 138
f 43 44 140 139
f 44 45 141 140
f 45 46 142 141
f 46 47 143 142
f 47 48 144 143
f 48 49 145 144
f 49 50 146 145
f 50 51 147 146
f 51 52 148 147
f 52 53 149 148
f 53 54 150 149
f 54 55 151 150
f 55 56 152 151
f 56 57 153 152
f 57 58 154 153
f 58 59 155 154
f 59 60 156 155
f 60 61 157 156
f 61 62 158 157
f 62 63 159 158
f 63 64 160 159
f 64 65 161 160
f 65 66 162 161
f 66 67 163 162
f 67 68 164 163
f 68 69 165 164
f 69 70 166 165
f 70 71 167 166
f 71 72 168 167
f 72 73 169 168
f 73 74 170 169
f 74 75 171 170
f 75 76 172 171
f 76 77 173 172
f 77 78 174 173
f 78 79 175 174
f 79 80 176 175
f 80 81 177 176
f 81 82 178 177
f 82 83 179 178
f 83 84 180 179
f 84 85 181 180
f 85 86 182 181
f 86 87 183 182
f 87 88 184 183
f 88 89 185 184
f 89 90 186 185
f 90 91 187 186
f 91 92 188 187
f 92 93 189 188
f 93 94 190 189
f 94 95 191 190
f 95 96 192 191
f 96 1 97 192
