# A 形 / Facet 96 stock preset
# Unit unspecified; maximum cross-section extent 2, height 2; +Z up
v -0.48 -1 -1
v -0.27 -0.28 -1
v 0.27 -0.28 -1
v 0.48 -1 -1
v 0.85 -1 -1
v 0.3 1 -1
v -0.3 1 -1
v -0.85 -1 -1
v -0.07 0.65 -1
v 0.07 0.65 -1
v 0.2 0.05 -1
v -0.2 0.05 -1
v -0.48 -1 1
v -0.27 -0.28 1
v 0.27 -0.28 1
v 0.48 -1 1
v 0.85 -1 1
v 0.3 1 1
v -0.3 1 1
v -0.85 -1 1
v -0.07 0.65 1
v 0.07 0.65 1
v 0.2 0.05 1
v -0.2 0.05 1
f 19 21 22
f 24 21 19
f 19 20 13
f 15 16 17
f 18 19 22
f 24 19 13
f 15 17 18
f 18 22 23
f 24 13 14
f 15 18 23
f 23 24 14
f 14 15 23
f 10 9 7
f 7 9 12
f 1 8 7
f 5 4 3
f 10 7 6
f 1 7 12
f 6 5 3
f 11 10 6
f 2 1 12
f 11 6 3
f 2 12 11
f 11 3 2
f 1 2 14 13
f 2 3 15 14
f 3 4 16 15
f 4 5 17 16
f 5 6 18 17
f 6 7 19 18
f 7 8 20 19
f 8 1 13 20
f 9 10 22 21
f 10 11 23 22
f 11 12 24 23
f 12 9 21 24
