# 圆端十字形 / Facet 96 stock preset
# Unit unspecified; maximum cross-section extent 2, height 2; +Z up
v 0.3 0.3 -1
v 0.3 0.7 -1
v 0.2942355841 0.7585270966 -1
v 0.2771638598 0.8148050297 -1
v 0.2494408837 0.8666710699 -1
v 0.2121320344 0.9121320344 -1
v 0.1666710699 0.9494408837 -1
v 0.1148050297 0.9771638598 -1
v 0.0585270966 0.9942355841 -1
v 0 1 -1
v -0.0585270966 0.9942355841 -1
v -0.1148050297 0.9771638598 -1
v -0.1666710699 0.9494408837 -1
v -0.2121320344 0.9121320344 -1
v -0.2494408837 0.8666710699 -1
v -0.2771638598 0.8148050297 -1
v -0.2942355841 0.7585270966 -1
v -0.3 0.7 -1
v -0.3 0.3 -1
v -0.7 0.3 -1
v -0.7585270966 0.2942355841 -1
v -0.8148050297 0.2771638598 -1
v -0.8666710699 0.2494408837 -1
v -0.9121320344 0.2121320344 -1
v -0.9494408837 0.1666710699 -1
v -0.9771638598 0.1148050297 -1
v -0.9942355841 0.0585270966 -1
v -1 0 -1
v -0.9942355841 -0.0585270966 -1
v -0.9771638598 -0.1148050297 -1
v -0.9494408837 -0.1666710699 -1
v -0.9121320344 -0.2121320344 -1
v -0.8666710699 -0.2494408837 -1
v -0.8148050297 -0.2771638598 -1
v -0.7585270966 -0.2942355841 -1
v -0.7 -0.3 -1
v -0.3 -0.3 -1
v -0.3 -0.7 -1
v -0.2942355841 -0.7585270966 -1
v -0.2771638598 -0.8148050297 -1
v -0.2494408837 -0.8666710699 -1
v -0.2121320344 -0.9121320344 -1
v -0.1666710699 -0.9494408837 -1
v -0.1148050297 -0.9771638598 -1
v -0.0585270966 -0.9942355841 -1
v 0 -1 -1
v 0.0585270966 -0.9942355841 -1
v 0.1148050297 -0.9771638598 -1
v 0.1666710699 -0.9494408837 -1
v 0.2121320344 -0.9121320344 -1
v 0.2494408837 -0.8666710699 -1
v 0.2771638598 -0.8148050297 -1
v 0.2942355841 -0.7585270966 -1
v 0.3 -0.7 -1
v 0.3 -0.3 -1
v 0.7 -0.3 -1
v 0.7585270966 -0.2942355841 -1
v 0.8148050297 -0.2771638598 -1
v 0.8666710699 -0.2494408837 -1
v 0.9121320344 -0.2121320344 -1
v 0.9494408837 -0.1666710699 -1
v 0.9771638598 -0.1148050297 -1
v 0.9942355841 -0.0585270966 -1
v 1 0 -1
v 0.9942355841 0.0585270966 -1
v 0.9771638598 0.1148050297 -1
v 0.9494408837 0.1666710699 -1
v 0.9121320344 0.2121320344 -1
v 0.8666710699 0.2494408837 -1
v 0.8148050297 0.2771638598 -1
v 0.7585270966 0.2942355841 -1
v 0.7 0.3 -1
v 0.3 0.3 1
v 0.3 0.7 1
v 0.2942355841 0.7585270966 1
v 0.2771638598 0.8148050297 1
v 0.2494408837 0.8666710699 1
v 0.2121320344 0.9121320344 1
v 0.1666710699 0.9494408837 1
v 0.1148050297 0.9771638598 1
v 0.0585270966 0.9942355841 1
v 0 1 1
v -0.0585270966 0.9942355841 1
v -0.1148050297 0.9771638598 1
v -0.1666710699 0.9494408837 1
v -0.2121320344 0.9121320344 1
v -0.2494408837 0.8666710699 1
v -0.2771638598 0.8148050297 1
v -0.2942355841 0.7585270966 1
v -0.3 0.7 1
v -0.3 0.3 1
v -0.7 0.3 1
v -0.7585270966 0.2942355841 1
v -0.8148050297 0.2771638598 1
v -0.8666710699 0.2494408837 1
v -0.9121320344 0.2121320344 1
v -0.9494408837 0.1666710699 1
v -0.9771638598 0.1148050297 1
v -0.9942355841 0.0585270966 1
v -1 0 1
v -0.9942355841 -0.0585270966 1
v -0.9771638598 -0.1148050297 1
v -0.9494408837 -0.1666710699 1
v -0.9121320344 -0.2121320344 1
v -0.8666710699 -0.2494408837 1
v -0.8148050297 -0.2771638598 1
v -0.7585270966 -0.2942355841 1
v -0.7 -0.3 1
v -0.3 -0.3 1
v -0.3 -0.7 1
v -0.2942355841 -0.7585270966 1
v -0.2771638598 -0.8148050297 1
v -0.2494408837 -0.8666710699 1
v -0.2121320344 -0.9121320344 1
v -0.1666710699 -0.9494408837 1
v -0.1148050297 -0.9771638598 1
v -0.0585270966 -0.9942355841 1
v 0 -1 1
v 0.0585270966 -0.9942355841 1
v 0.1148050297 -0.9771638598 1
v 0.1666710699 -0.9494408837 1
v 0.2121320344 -0.9121320344 1
v 0.2494408837 -0.8666710699 1
v 0.2771638598 -0.8148050297 1
v 0.2942355841 -0.7585270966 1
v 0.3 -0.7 1
v 0.3 -0.3 1
v 0.7 -0.3 1
v 0.7585270966 -0.2942355841 1
v 0.8148050297 -0.2771638598 1
v 0.8666710699 -0.2494408837 1
v 0.9121320344 -0.2121320344 1
v 0.9494408837 -0.1666710699 1
v 0.9771638598 -0.1148050297 1
v 0.9942355841 -0.0585270966 1
v 1 0 1
v 0.9942355841 0.0585270966 1
v 0.9771638598 0.1148050297 1
v 0.9494408837 0.1666710699 1
v 0.9121320344 0.2121320344 1
v 0.8666710699 0.2494408837 1
v 0.8148050297 0.2771638598 1
v 0.7585270966 0.2942355841 1
v 0.7 0.3 1
f 143 144 73
f 73 74 75
f 75 76 77
f 77 78 79
f 79 80 81
f 81 82 83
f 83 84 85
f 85 86 87
f 87 88 89
f 89 90 91
f 91 92 93
f 93 94 95
f 95 96 97
f 97 98 99
f 99 100 101
f 101 102 103
f 103 104 105
f 105 106 107
f 107 108 109
f 109 110 111
f 111 112 113
f 113 114 115
f 115 116 117
f 117 118 119
f 119 120 121
f 121 122 123
f 123 124 125
f 125 126 127
f 127 128 129
f 129 130 131
f 131 132 133
f 133 134 135
f 135 136 137
f 137 138 139
f 139 140 141
f 141 142 143
f 73 75 77
f 77 79 81
f 81 83 85
f 85 87 89
f 91 93 95
f 95 97 99
f 99 101 103
f 103 105 107
f 109 111 113
f 113 115 117
f 117 119 121
f 121 123 125
f 127 129 131
f 131 133 135
f 135 137 139
f 139 141 143
f 73 77 81
f 81 85 89
f 91 95 99
f 99 103 107
f 109 113 117
f 117 121 125
f 127 131 135
f 135 139 143
f 73 81 89
f 91 99 107
f 109 117 125
f 127 135 143
f 73 89 91
f 91 107 109
f 109 125 127
f 127 143 73
f 73 91 109
f 109 127 73
f 1 72 71
f 3 2 1
f 5 4 3
f 7 6 5
f 9 8 7
f 11 10 9
f 13 12 11
f 15 14 13
f 17 16 15
f 19 18 17
f 21 20 19
f 23 22 21
f 25 24 23
f 27 26 25
f 29 28 27
f 31 30 29
f 33 32 31
f 35 34 33
f 37 36 35
f 39 38 37
f 41 40 39
f 43 42 41
f 45 44 43
f 47 46 45
f 49 48 47
f 51 50 49
f 53 52 51
f 55 54 53
f 57 56 55
f 59 58 57
f 61 60 59
f 63 62 61
f 65 64 63
f 67 66 65
f 69 68 67
f 71 70 69
f 5 3 1
f 9 7 5
f 13 11 9
f 17 15 13
f 23 21 19
f 27 25 23
f 31 29 27
f 35 33 31
f 41 39 37
f 45 43 41
f 49 47 45
f 53 51 49
f 59 57 55
f 63 61 59
f 67 65 63
f 71 69 67
f 9 5 1
f 17 13 9
f 27 23 19
f 35 31 27
f 45 41 37
f 53 49 45
f 63 59 55
f 71 67 63
f 17 9 1
f 35 27 19
f 53 45 37
f 71 63 55
f 19 17 1
f 37 35 19
f 55 53 37
f 1 71 55
f 37 19 1
f 1 55 37
f 1 2 74 73
f 2 3 75 74
f 3 4 76 75
f 4 5 77 76
f 5 6 78 77
f 6 7 79 78
f 7 8 80 79
f 8 9 81 80
f 9 10 82 81
f 10 11 83 82
f 11 12 84 83
f 12 13 85 84
f 13 14 86 85
f 14 15 87 86
f 15 16 88 87
f 16 17 89 88
f 17 18 90 89
f 18 19 91 90
f 19 20 92 91
f 20 21 93 92
f 21 22 94 93
f 22 23 95 94
f 23 24 96 95
f 24 25 97 96
f 25 26 98 97
f 26 27 99 98
f 27 28 100 99
f 28 29 101 100
f 29 30 102 101
f 30 31 103 102
f 31 32 104 103
f 32 33 105 104
f 33 34 106 105
f 34 35 107 106
f 35 36 108 107
f 36 37 109 108
f 37 38 110 109
f 38 39 111 110
f 39 40 112 111
f 40 41 113 112
f 41 42 114 113
f 42 43 115 114
f 43 44 116 115
f 44 45 117 116
f 45 46 118 117
f 46 47 119 118
f 47 48 120 119
f 48 49 121 120
f 49 50 122 121
f 50 51 123 122
f 51 52 124 123
f 52 53 125 124
f 53 54 126 125
f 54 55 127 126
f 55 56 128 127
f 56 57 129 128
f 57 58 130 129
f 58 59 131 130
f 59 60 132 131
f 60 61 133 132
f 61 62 134 133
f 62 63 135 134
f 63 64 136 135
f 64 65 137 136
f 65 66 138 137
f 66 67 139 138
f 67 68 140 139
f 68 69 141 140
f 69 70 142 141
f 70 71 143 142
f 71 72 144 143
f 72 1 73 144
